<svg xmlns="http://www.w3.org/2000/svg" viewBox="0 -90 792 792" enable-background="new 0 -90 792 792"><style type="text/css">.st0{fill:#F7A9A4;}</style><path class="st0" d="M363.4 105.7c14 18.6 23.3 46.6 23.3 74.5s-9.3 55.9-23.3 69.9c-9.3 14-18.6 23.3-37.3 32.6 23.3 9.3 41.9 23.3 55.9 41.9 14 18.6 18.6 41.9 18.6 69.9 0 32.6-4.7 55.9-18.6 79.2-9.3 14-23.3 28-37.3 37.3-14 14-32.6 18.6-55.9 23.3-23.3 4.7-46.6 4.7-69.9 4.7h-218.9v-484.6h237.6c60.6 0 102.5 18.7 125.8 51.3zm-265.6 32.6v107.2h121.2c23.3 0 37.3-4.7 51.2-14 9.3-4.7 18.6-18.6 18.6-37.3 0-23.3-9.3-37.3-28-46.6-14-4.7-32.6-9.3-55.9-9.3h-107.1zm0 191v130.4h121.2c23.3 0 37.3-4.7 51.2-9.3 23.3-9.3 32.6-32.6 32.6-60.6 0-23.3-9.3-41.9-32.6-51.2-14-9.3-32.6-9.3-51.2-9.3h-121.2zm601-139.8c23.3 9.3 46.6 28 60.6 55.9 14 23.3 23.3 46.6 28 74.5 4.7 14 4.7 37.3 4.7 69.9h-265.7c0 37.3 14 60.6 37.3 74.5 14 9.3 32.6 14 51.2 14 23.3 0 37.3-4.7 51.2-18.6 9.3-4.7 14-14 18.6-23.3h97.8c-4.7 23.3-14 41.9-37.3 65.2-32.6 37.3-79.2 51.2-135.1 51.2-46.6 0-88.5-14-125.8-46.6-32.6-23.3-51.2-74.5-51.2-139.8 0-60.6 18.6-111.8 51.2-144.4 32.6-32.6 74.5-51.2 130.4-51.2 28.2.1 56.2 9.4 84.1 18.7zm-144.4 83.9c-14 14-23.3 32.6-23.3 55.9h163.1c0-23.3-9.3-41.9-23.3-55.9s-32.6-18.6-55.9-18.6c-28-4.7-46.6 4.6-60.6 18.6zm163.1-195.7h-209.7v60.6h209.6v-60.6z" id="Capa_1"/></svg>