<svg xmlns="http://www.w3.org/2000/svg" viewBox="0 0 116.2 116.2" enable-background="new 0 0 116.2 116.2"><style type="text/css">.st0{fill:#F37779;} .st1{fill:#1F243D;} .st2{fill:#446287;} .st3{fill:#657798;} .st4{fill:#FFFFFF;}</style><circle class="st0" cx="58.1" cy="58.1" r="46.3"/><path class="st1" d="M82.5 74.3h-48.7c-2.7 0-5-2.2-5-5v-31c0-2.7 2.2-5 5-5h48.7c2.7 0 5 2.2 5 5v31.1c0 2.7-2.3 4.9-5 4.9z"/><path class="st2" d="M31.8 36.1h52.7v31.4h-52.7z"/><path class="st1" d="M52.6 71.7h11v8.9h-11zm-9.6 9h30.2v2.3h-30.2z"/><path class="st3" d="M84.5 67.6l-52.7-31.5h52.7z"/><circle class="st2" cx="58.1" cy="58.1" r="46.3"/><path class="st4" d="M33.7 49.7c1.6 0 2.9.8 3.6 1.7l-.5.6c-.8-.8-1.8-1.4-3-1.4-3 0-4.9 2.4-4.9 6.3 0 3.8 1.9 6.3 4.8 6.3 1.4 0 2.5-.6 3.5-1.7l.6.6c-1 1.2-2.3 2-4.1 2-3.4 0-5.8-2.8-5.8-7.2-.1-4.4 2.3-7.2 5.8-7.2zm10.3 3.8c2.4 0 4.5 1.9 4.5 5.3 0 3.3-2.1 5.3-4.5 5.3s-4.5-1.9-4.5-5.3 2.1-5.3 4.5-5.3zm0 9.8c2 0 3.6-1.8 3.6-4.5s-1.5-4.5-3.6-4.5-3.5 1.8-3.5 4.5 1.5 4.5 3.5 4.5zm7.6-9.6h.8l.1 1.6h.1c1-1 2.1-1.8 3.5-1.8 2.1 0 3 1.3 3 3.9v6.5h-.9v-6.3c0-2.1-.7-3.1-2.3-3.1-1.2 0-2.1.6-3.3 1.9v7.6h-.9v-10.3zm9.5 0h1l2.3 6.3c.3 1 .7 2 1 2.9h.1c.3-.9.7-1.9 1-2.9l2.3-6.3h.9l-3.7 10.1h-1.1l-3.8-10.1zm14.3-.2c2.4 0 3.9 1.7 3.9 4.7v.8h-7.3c0 2.5 1.5 4.4 3.8 4.4 1.1 0 2-.4 2.7-.9l.4.7c-.8.5-1.7 1-3.2 1-2.6 0-4.7-2-4.7-5.3 0-3.4 2.2-5.4 4.4-5.4zm3 4.7c0-2.6-1.2-3.9-3-3.9-1.7 0-3.3 1.5-3.5 3.9h6.5zm3.5 9.4c1.2 0 2.1-1.1 2.6-2.7l.3-.9-4.1-10.3h1l2.4 6.3c.3.8.7 1.9 1.1 2.8h.1c.3-.9.7-2 .9-2.8l2.2-6.3h.9l-4 11.3c-.6 1.7-1.6 3.3-3.4 3.3-.4 0-.8-.1-1-.2l.2-.8c.2.2.5.3.8.3z"/></svg>