<?xml version="1.0" encoding="utf-8"?>
<!-- Generator: Adobe Illustrator 18.1.1, SVG Export Plug-In . SVG Version: 6.00 Build 0)  -->
<!DOCTYPE svg PUBLIC "-//W3C//DTD SVG 1.1//EN" "http://www.w3.org/Graphics/SVG/1.1/DTD/svg11.dtd">
<svg version="1.1" id="Layer_1" xmlns="http://www.w3.org/2000/svg" xmlns:xlink="http://www.w3.org/1999/xlink" x="0px" y="0px"
	 viewBox="0 0 1023 1023" style="enable-background:new 0 0 1023 1023;" xml:space="preserve">
<style type="text/css">
	.st0{fill:#A3ADC1;}
	.st1{fill:#1F243D;}
	.st2{fill:#446287;}
	.st3{fill:#657798;}
</style>
<circle class="st0" cx="511.5" cy="511.5" r="407.6"/>
<path class="st1" d="M726.3,654.1H297.6c-23.8,0-44-19.4-44-44V337.2c0-23.8,19.4-44,44-44h428.7c23.8,0,44,19.4,44,44V611
	C770.3,634.8,750.1,654.1,726.3,654.1z"/>
<path class="st2" d="M280,317.8h464v276.4H280V317.8z"/>
<path class="st1" d="M463.1,631.2h96.8v78.4h-96.8L463.1,631.2L463.1,631.2z M378.6,710.5h265.9v20.2H378.6V710.5z"/>
<path class="st3" d="M743.9,595.1L280,317.8h464L743.9,595.1L743.9,595.1z"/>
</svg>
