<?xml version="1.0" encoding="utf-8"?>
<!-- Generator: Adobe Illustrator 18.1.1, SVG Export Plug-In . SVG Version: 6.00 Build 0)  -->
<!DOCTYPE svg PUBLIC "-//W3C//DTD SVG 1.1//EN" "http://www.w3.org/Graphics/SVG/1.1/DTD/svg11.dtd">
<svg version="1.1" id="Layer_1" xmlns="http://www.w3.org/2000/svg" xmlns:xlink="http://www.w3.org/1999/xlink" x="0px" y="0px"
	 viewBox="0 0 99.4 99.4" style="enable-background:new 0 0 99.4 99.4;" xml:space="preserve">
<style type="text/css">
	.st0{fill:#446287;}
	.st1{fill:#FFFFFF;}
</style>
<g>
	<circle class="st0" cx="49.4" cy="49.6" r="46.3"/>
	<g>
		<g>
			<path class="st1" d="M25,41.3c1.6,0,2.9,0.8,3.6,1.7l-0.6,0.6c-0.8-0.8-1.8-1.4-3-1.4c-3,0-4.9,2.4-4.9,6.3
				c0,3.8,1.9,6.3,4.8,6.3c1.4,0,2.5-0.6,3.5-1.7l0.6,0.6c-1,1.2-2.3,2-4.1,2c-3.4,0-5.8-2.8-5.8-7.2C19.1,44,21.5,41.3,25,41.3z"/>
			<path class="st1" d="M35.4,45c2.4,0,4.5,1.9,4.5,5.3c0,3.3-2.1,5.3-4.5,5.3c-2.4,0-4.5-1.9-4.5-5.3C30.8,46.9,32.9,45,35.4,45z
				 M35.4,54.8c2,0,3.6-1.8,3.6-4.5c0-2.7-1.5-4.5-3.6-4.5s-3.5,1.8-3.5,4.5C31.8,53,33.3,54.8,35.4,54.8z"/>
			<path class="st1" d="M42.9,45.3h0.8l0.1,1.6h0.1c1-1,2.1-1.8,3.5-1.8c2.1,0,3,1.3,3,3.9v6.5h-0.9V49c0-2.1-0.7-3.1-2.3-3.1
				c-1.2,0-2.1,0.6-3.3,1.9v7.6h-0.9V45.3z"/>
			<path class="st1" d="M52.4,45.3h1l2.3,6.3c0.3,1,0.7,2,1,2.9h0.1c0.3-0.9,0.7-1.9,1-2.9l2.3-6.3H61l-3.7,10.1h-1.1L52.4,45.3z"/>
			<path class="st1" d="M66.7,45c2.4,0,3.9,1.7,3.9,4.7c0,0.3,0,0.5,0,0.8h-7.3c0,2.5,1.5,4.4,3.8,4.4c1.1,0,2-0.4,2.7-0.9l0.4,0.7
				c-0.8,0.5-1.7,1-3.2,1c-2.6,0-4.7-2-4.7-5.3C62.4,47,64.5,45,66.7,45z M69.7,49.7c0-2.6-1.2-3.9-3-3.9c-1.7,0-3.3,1.5-3.5,3.9
				H69.7z"/>
			<path class="st1" d="M73.2,59.1c1.2,0,2.1-1.1,2.6-2.7l0.3-0.9l-4.1-10.3h1l2.4,6.3c0.3,0.8,0.7,1.9,1.1,2.8h0.1
				c0.3-0.9,0.7-2,0.9-2.8l2.2-6.3h0.9l-4,11.3c-0.6,1.7-1.6,3.3-3.4,3.3c-0.4,0-0.8-0.1-1-0.2l0.2-0.8C72.6,59,72.9,59.1,73.2,59.1
				z"/>
		</g>
	</g>
</g>
<g>
</g>
<g>
</g>
<g>
</g>
<g>
</g>
<g>
</g>
<g>
</g>
</svg>
