<svg xmlns="http://www.w3.org/2000/svg" viewBox="0 0 99.4 99.4" enable-background="new 0 0 99.4 99.4"><style type="text/css">.st0{fill:#446287;} .st1{fill:#FFFFFF;}</style><circle class="st0" cx="49.4" cy="49.6" r="46.3"/><path class="st1" d="M25 41.3c1.6 0 2.9.8 3.6 1.7l-.6.6c-.8-.8-1.8-1.4-3-1.4-3 0-4.9 2.4-4.9 6.3 0 3.8 1.9 6.3 4.8 6.3 1.4 0 2.5-.6 3.5-1.7l.6.6c-1 1.2-2.3 2-4.1 2-3.4 0-5.8-2.8-5.8-7.2 0-4.5 2.4-7.2 5.9-7.2zm10.4 3.7c2.4 0 4.5 1.9 4.5 5.3 0 3.3-2.1 5.3-4.5 5.3s-4.5-1.9-4.5-5.3c-.1-3.4 2-5.3 4.5-5.3zm0 9.8c2 0 3.6-1.8 3.6-4.5s-1.5-4.5-3.6-4.5-3.5 1.8-3.5 4.5c-.1 2.7 1.4 4.5 3.5 4.5zm7.5-9.5h.8l.1 1.6h.1c1-1 2.1-1.8 3.5-1.8 2.1 0 3 1.3 3 3.9v6.5h-.9v-6.5c0-2.1-.7-3.1-2.3-3.1-1.2 0-2.1.6-3.3 1.9v7.6h-.9v-10.1zm9.5 0h1l2.3 6.3c.3 1 .7 2 1 2.9h.1c.3-.9.7-1.9 1-2.9l2.3-6.3h.9l-3.7 10.1h-1.1l-3.8-10.1zm14.3-.3c2.4 0 3.9 1.7 3.9 4.7v.8h-7.3c0 2.5 1.5 4.4 3.8 4.4 1.1 0 2-.4 2.7-.9l.4.7c-.8.5-1.7 1-3.2 1-2.6 0-4.7-2-4.7-5.3.1-3.4 2.2-5.4 4.4-5.4zm3 4.7c0-2.6-1.2-3.9-3-3.9-1.7 0-3.3 1.5-3.5 3.9h6.5zm3.5 9.4c1.2 0 2.1-1.1 2.6-2.7l.3-.9-4.1-10.3h1l2.4 6.3c.3.8.7 1.9 1.1 2.8h.1c.3-.9.7-2 .9-2.8l2.2-6.3h.9l-4 11.3c-.6 1.7-1.6 3.3-3.4 3.3-.4 0-.8-.1-1-.2l.2-.8c.2.2.5.3.8.3z"/></svg>