<?xml version="1.0" encoding="utf-8"?>
<!-- Generator: Adobe Illustrator 18.1.1, SVG Export Plug-In . SVG Version: 6.00 Build 0)  -->
<!DOCTYPE svg PUBLIC "-//W3C//DTD SVG 1.1//EN" "http://www.w3.org/Graphics/SVG/1.1/DTD/svg11.dtd">
<svg version="1.1" id="Layer_1" xmlns="http://www.w3.org/2000/svg" xmlns:xlink="http://www.w3.org/1999/xlink" x="0px" y="0px"
	 viewBox="0 0 99.4 99.4" style="enable-background:new 0 0 99.4 99.4;" xml:space="preserve">
<style type="text/css">
	.st0{fill:#68C6B5;}
	.st1{fill:#FFFFFF;}
</style>
<g>
	<circle class="st0" cx="49.7" cy="49.7" r="46.3"/>
	<g>
		<path class="st1" d="M22.9,41.6h3.2c4.3,0,6.3,2.7,6.3,6.9c0,4.2-2,7-6.3,7h-3.2V41.6z M26,54.6c3.8,0,5.4-2.5,5.4-6.2
			c0-3.6-1.6-6-5.4-6h-2.1v12.2H26z"/>
		<path class="st1" d="M39,45.1c2.4,0,3.9,1.7,3.9,4.7c0,0.3,0,0.5,0,0.8h-7.3c0,2.5,1.5,4.4,3.8,4.4c1.1,0,2-0.4,2.7-0.9l0.4,0.7
			c-0.8,0.5-1.7,1-3.2,1c-2.6,0-4.7-2-4.7-5.3C34.6,47.1,36.8,45.1,39,45.1z M42,49.8c0-2.6-1.2-3.9-3-3.9c-1.7,0-3.3,1.5-3.5,3.9
			H42z"/>
		<path class="st1" d="M44.9,53.6c0.9,0.7,1.8,1.3,3.2,1.3c1.6,0,2.4-0.9,2.4-2c0-1.3-1.3-1.8-2.5-2.2c-1.5-0.5-3.2-1.2-3.2-2.9
			c0-1.5,1.2-2.7,3.3-2.7c1.1,0,2.1,0.4,2.9,1l-0.5,0.7c-0.7-0.5-1.4-0.9-2.4-0.9c-1.6,0-2.3,0.9-2.3,1.8c0,1.1,1.2,1.6,2.4,2
			c1.6,0.6,3.3,1.1,3.3,3.1c0,1.5-1.2,2.8-3.4,2.8c-1.5,0-2.8-0.6-3.7-1.4L44.9,53.6z"/>
		<path class="st1" d="M53.8,42.1c0-0.5,0.4-0.8,0.8-0.8s0.8,0.3,0.8,0.8c0,0.5-0.4,0.8-0.8,0.8S53.8,42.5,53.8,42.1z M54.1,45.3H55
			v10.1h-0.9V45.3z"/>
		<path class="st1" d="M59.6,55L59.6,55c-0.5-0.4-0.9-0.9-0.9-1.7c0-0.9,0.7-1.5,1.1-1.8v-0.1c-0.6-0.5-1.3-1.6-1.3-2.8
			c0-2.1,1.6-3.5,3.5-3.5c0.5,0,1,0.1,1.3,0.3h3.4v0.8h-2.4c0.7,0.6,1.1,1.5,1.1,2.5c0,2.1-1.5,3.5-3.5,3.5c-0.6,0-1.2-0.1-1.7-0.4
			c-0.4,0.4-0.8,0.8-0.8,1.4c0,0.7,0.4,1.3,1.9,1.3h2.2c2.3,0,3.3,0.7,3.3,2.3c0,1.7-1.9,3.4-4.8,3.4c-2.5,0-4.1-1.1-4.1-2.8
			C58.1,56.6,58.7,55.7,59.6,55z M62.3,59.5c2.3,0,3.7-1.3,3.7-2.5c0-1.1-0.8-1.5-2.3-1.5h-2.2c-0.2,0-0.7,0-1.3-0.2
			c-0.9,0.6-1.3,1.4-1.3,2.1C59,58.6,60.2,59.5,62.3,59.5z M64.7,48.6c0-1.7-1.2-2.8-2.6-2.8s-2.6,1.1-2.6,2.8
			c0,1.7,1.2,2.8,2.6,2.8C63.5,51.4,64.7,50.3,64.7,48.6z"/>
		<path class="st1" d="M69.2,45.3H70l0.1,1.6h0.1c1-1,2.1-1.8,3.5-1.8c2.1,0,3,1.3,3,3.9v6.5h-0.9V49c0-2.1-0.7-3.1-2.3-3.1
			c-1.2,0-2.1,0.6-3.3,1.9v7.6h-0.9V45.3z"/>
	</g>
</g>
<g>
</g>
<g>
</g>
<g>
</g>
<g>
</g>
<g>
</g>
<g>
</g>
</svg>
