<svg xmlns="http://www.w3.org/2000/svg" viewBox="0 0 99.4 99.4" enable-background="new 0 0 99.4 99.4"><style type="text/css">.st0{fill:#F37779;} .st1{fill:#68C6B5;} .st2{fill:#26A5AA;} .st3{fill:#72A79E;}</style><circle class="st0" cx="49.8" cy="50.3" r="46.3"/><path class="st1" d="M49.2 21.9l-13.4 28.7.4 26.9h25.9l.4-26.9z"/><path class="st2" d="M54.3 33l-5.1-11.1-5.2 11.1zm-17.6 45.6c.9 0 1.6-.7 1.6-1.6v-25.4c0-.9-.7-1.6-1.6-1.6-.9 0-1.6.7-1.6 1.6v25.4c0 .9.7 1.6 1.6 1.6z"/><path class="st3" d="M55.4 53.9c-2.2 0-4-.9-4.7-2.2h-.3v25.9h10v-26h-.3c-.7 1.3-2.6 2.3-4.7 2.3z"/><path class="st2" d="M49.2 78.6c.9 0 1.6-.7 1.6-1.6v-25.4c0-.9-.7-1.6-1.6-1.6-.9 0-1.6.7-1.6 1.6v25.4c0 .9.7 1.6 1.6 1.6zm12.4 0c.9 0 1.6-.7 1.6-1.6v-25.4c0-.9-.7-1.6-1.6-1.6-.9 0-1.6.7-1.6 1.6v25.4c0 .9.7 1.6 1.6 1.6z"/></svg>