<svg xmlns="http://www.w3.org/2000/svg" viewBox="0 0 98.5 98.5" enable-background="new 0 0 98.5 98.5"><style type="text/css">.st0{fill:#F37779;} .st1{fill:#F7B461;} .st2{fill:#F7B461;stroke:#F7B461;stroke-width:2.0109;stroke-miterlimit:10;}</style><circle class="st0" cx="49.2" cy="49.2" r="46.3"/><path class="st1" d="M67.8 48.1c0-11-9.5-19.7-20.7-18.5-8.6 1-15.5 8-16.4 16.6-.7 6.9 2.4 13.1 7.5 16.9 1.5 1.1 2.3 2.8 2.3 4.6l.7 5.3h16.1l.7-5.3c0-1.8.9-3.6 2.3-4.7 4.6-3.3 7.5-8.7 7.5-14.9zM41.4 74.3h15.8v1.3h-15.8zM42 76.8h14.5v1.2h-14.5zM52.7 81.2h-6.9l-2-2h10.9z"/><path class="st2" d="M49.1 15.6h.9v10.5h-.9zM64.562 30.243l-.636-.636 7.425-7.425.636.636zM36.127 29.543l-.636.636-7.425-7.425.636-.636zM69.305 59.661l.636-.636 7.425 7.425-.636.636zM72 43.7h10.5v.9h-10.5zM16 44.1h10.5v.9h-10.5zM22.456 68.409l-.636-.636 7.425-7.425.636.636z"/></svg>