<?xml version="1.0" encoding="utf-8"?>
<!-- Generator: Adobe Illustrator 18.1.1, SVG Export Plug-In . SVG Version: 6.00 Build 0)  -->
<!DOCTYPE svg PUBLIC "-//W3C//DTD SVG 1.1//EN" "http://www.w3.org/Graphics/SVG/1.1/DTD/svg11.dtd">
<svg version="1.1" id="Layer_1" xmlns="http://www.w3.org/2000/svg" xmlns:xlink="http://www.w3.org/1999/xlink" x="0px" y="0px"
	 viewBox="0 0 97.4 97.4" style="enable-background:new 0 0 97.4 97.4;" xml:space="preserve">
<style type="text/css">
	.st0{fill:#F1B45E;}
	.st1{fill:#FFFFFF;}
</style>
<g>
	<circle class="st0" cx="48.7" cy="48.7" r="46.3"/>
	<g>
		<path class="st1" d="M16.3,40.6h1v13.8h-1V40.6z"/>
		<path class="st1" d="M21.1,44.3h0.8l0.1,1.6h0.1c0.9-1,2.1-1.8,3.2-1.8c1.6,0,2.4,0.8,2.8,2.1c1.2-1.3,2.3-2.1,3.4-2.1
			c2,0,3,1.3,3,3.9v6.5h-0.9v-6.3c0-2.1-0.7-3.1-2.2-3.1c-0.9,0-1.9,0.6-3,1.9v7.6h-0.9v-6.3c0-2.1-0.7-3.1-2.3-3.1
			c-0.9,0-1.9,0.6-3,1.9v7.6h-0.9V44.3z"/>
		<path class="st1" d="M44.1,48.1c0-1.5-0.4-3.2-2.4-3.2c-1.4,0-2.5,0.7-3.2,1.2l-0.4-0.7c0.7-0.5,2.1-1.3,3.7-1.3
			c2.4,0,3.2,1.7,3.2,3.9v6.4h-0.8l-0.1-1.3h0c-1,0.8-2.2,1.6-3.6,1.6c-1.6,0-2.9-0.9-2.9-2.8C37.6,49.7,39.7,48.6,44.1,48.1z
			 M40.7,53.9c1.2,0,2.2-0.6,3.4-1.6v-3.4c-4.1,0.5-5.5,1.4-5.5,3C38.6,53.3,39.6,53.9,40.7,53.9z"/>
		<path class="st1" d="M49.3,54L49.3,54c-0.5-0.4-0.9-0.9-0.9-1.7c0-0.9,0.7-1.5,1.1-1.8v-0.1c-0.6-0.5-1.3-1.6-1.3-2.8
			c0-2.1,1.6-3.5,3.5-3.5c0.5,0,1,0.1,1.3,0.3h3.4v0.8h-2.4c0.7,0.6,1.1,1.5,1.1,2.5c0,2.1-1.5,3.5-3.5,3.5c-0.6,0-1.2-0.1-1.7-0.4
			c-0.4,0.4-0.8,0.8-0.8,1.4c0,0.7,0.4,1.3,1.9,1.3h2.2c2.3,0,3.3,0.7,3.3,2.3c0,1.7-1.9,3.4-4.8,3.4c-2.5,0-4.1-1.1-4.1-2.8
			C47.8,55.6,48.4,54.7,49.3,54z M52.1,58.5c2.3,0,3.7-1.3,3.7-2.5c0-1.1-0.8-1.5-2.3-1.5h-2.2c-0.2,0-0.7,0-1.3-0.2
			c-0.9,0.6-1.3,1.4-1.3,2.1C48.7,57.6,49.9,58.5,52.1,58.5z M54.4,47.6c0-1.7-1.2-2.8-2.6-2.8s-2.6,1.1-2.6,2.8
			c0,1.7,1.2,2.8,2.6,2.8C53.2,50.5,54.4,49.3,54.4,47.6z"/>
		<path class="st1" d="M58.5,41.1c0-0.5,0.4-0.8,0.8-0.8c0.5,0,0.8,0.3,0.8,0.8c0,0.5-0.4,0.8-0.8,0.8
			C58.9,41.9,58.5,41.6,58.5,41.1z M58.9,44.3h0.9v10.1h-0.9V44.3z"/>
		<path class="st1" d="M63.7,44.3h0.8l0.1,1.6h0.1c1-1,2.1-1.8,3.5-1.8c2.1,0,3,1.3,3,3.9v6.5h-0.9v-6.3c0-2.1-0.7-3.1-2.3-3.1
			c-1.2,0-2.1,0.6-3.3,1.9v7.6h-0.9V44.3z"/>
		<path class="st1" d="M78.4,44.1c2.4,0,3.9,1.7,3.9,4.7c0,0.3,0,0.5,0,0.8H75c0,2.5,1.5,4.4,3.8,4.4c1.1,0,2-0.4,2.7-0.9l0.4,0.7
			c-0.8,0.5-1.7,1-3.2,1c-2.6,0-4.7-2-4.7-5.3C74,46.1,76.2,44.1,78.4,44.1z M81.4,48.8c0-2.6-1.2-3.9-3-3.9c-1.7,0-3.3,1.5-3.5,3.9
			H81.4z"/>
	</g>
</g>
<g>
</g>
<g>
</g>
<g>
</g>
<g>
</g>
<g>
</g>
<g>
</g>
</svg>
