<svg xmlns="http://www.w3.org/2000/svg" viewBox="0 0 97.4 97.4" enable-background="new 0 0 97.4 97.4"><style type="text/css">.st0{fill:#F1B45E;} .st1{fill:#FFFFFF;}</style><circle class="st0" cx="48.7" cy="48.7" r="46.3"/><path class="st1" d="M16.3 40.6h1v13.8h-1v-13.8zm4.8 3.7h.8l.1 1.6h.1c.9-1 2.1-1.8 3.2-1.8 1.6 0 2.4.8 2.8 2.1 1.2-1.3 2.3-2.1 3.4-2.1 2 0 3 1.3 3 3.9v6.5h-.9v-6.3c0-2.1-.7-3.1-2.2-3.1-.9 0-1.9.6-3 1.9v7.6h-.9v-6.3c0-2.1-.7-3.1-2.3-3.1-.9 0-1.9.6-3 1.9v7.6h-.9v-10.4zm23 3.8c0-1.5-.4-3.2-2.4-3.2-1.4 0-2.5.7-3.2 1.2l-.4-.7c.7-.5 2.1-1.3 3.7-1.3 2.4 0 3.2 1.7 3.2 3.9v6.4h-.8l-.1-1.3c-1 .8-2.2 1.6-3.6 1.6-1.6 0-2.9-.9-2.9-2.8 0-2.2 2.1-3.3 6.5-3.8zm-3.4 5.8c1.2 0 2.2-.6 3.4-1.6v-3.4c-4.1.5-5.5 1.4-5.5 3 0 1.4 1 2 2.1 2zm8.6.1c-.5-.4-.9-.9-.9-1.7 0-.9.7-1.5 1.1-1.8v-.1c-.6-.5-1.3-1.6-1.3-2.8 0-2.1 1.6-3.5 3.5-3.5.5 0 1 .1 1.3.3h3.4v.8h-2.4c.7.6 1.1 1.5 1.1 2.5 0 2.1-1.5 3.5-3.5 3.5-.6 0-1.2-.1-1.7-.4-.4.4-.8.8-.8 1.4 0 .7.4 1.3 1.9 1.3h2.2c2.3 0 3.3.7 3.3 2.3 0 1.7-1.9 3.4-4.8 3.4-2.5 0-4.1-1.1-4.1-2.8.2-.8.8-1.7 1.7-2.4zm2.8 4.5c2.3 0 3.7-1.3 3.7-2.5 0-1.1-.8-1.5-2.3-1.5h-2.2c-.2 0-.7 0-1.3-.2-.9.6-1.3 1.4-1.3 2.1 0 1.2 1.2 2.1 3.4 2.1zm2.3-10.9c0-1.7-1.2-2.8-2.6-2.8s-2.6 1.1-2.6 2.8c0 1.7 1.2 2.8 2.6 2.8 1.4.1 2.6-1.1 2.6-2.8zm4.1-6.5c0-.5.4-.8.8-.8.5 0 .8.3.8.8s-.4.8-.8.8-.8-.3-.8-.8zm.4 3.2h.9v10.1h-.9v-10.1zm4.8 0h.8l.1 1.6h.1c1-1 2.1-1.8 3.5-1.8 2.1 0 3 1.3 3 3.9v6.5h-.9v-6.3c0-2.1-.7-3.1-2.3-3.1-1.2 0-2.1.6-3.3 1.9v7.6h-.9v-10.3zm14.7-.2c2.4 0 3.9 1.7 3.9 4.7v.8h-7.3c0 2.5 1.5 4.4 3.8 4.4 1.1 0 2-.4 2.7-.9l.4.7c-.8.5-1.7 1-3.2 1-2.6 0-4.7-2-4.7-5.3 0-3.4 2.2-5.4 4.4-5.4zm3 4.7c0-2.6-1.2-3.9-3-3.9-1.7 0-3.3 1.5-3.5 3.9h6.5z"/></svg>