<svg xmlns="http://www.w3.org/2000/svg" viewBox="0 -90 792 792" enable-background="new 0 -90 792 792"><style type="text/css">.st0{fill:#F7A9A4;}</style><path class="st0" d="M583.2 0h-374.4c-64.8 0-118.8 54-118.8 118.8v378c0 61.2 54 115.2 118.8 115.2h374.4c64.8 0 118.8-54 118.8-118.8v-374.4c0-64.8-54-118.8-118.8-118.8zm36 72h10.8v104.4h-104.4v-104.4h93.6zm-309.6 172.8c18-28.8 50.4-46.8 86.4-46.8s68.4 18 86.4 43.2c14.4 18 21.6 39.6 21.6 61.2 0 61.2-46.8 108-108 108s-108-46.8-108-108c0-18 7.2-39.6 21.6-57.6zm334.8 248.4c0 32.4-25.2 57.6-57.6 57.6h-378c-32.4 0-57.6-25.2-57.6-57.6v-252h90c-7.2 21.6-10.8 43.2-10.8 64.8 0 93.6 75.6 169.2 169.2 169.2s169.2-75.6 169.2-169.2c0-21.6-3.6-43.2-10.8-61.2h90v248.4h-3.6z" id="Capa_1"/></svg>