<?xml version="1.0" encoding="utf-8"?>
<!-- Generator: Adobe Illustrator 18.1.1, SVG Export Plug-In . SVG Version: 6.00 Build 0)  -->
<!DOCTYPE svg PUBLIC "-//W3C//DTD SVG 1.1//EN" "http://www.w3.org/Graphics/SVG/1.1/DTD/svg11.dtd">
<svg version="1.1" id="Layer_1" xmlns="http://www.w3.org/2000/svg" xmlns:xlink="http://www.w3.org/1999/xlink" x="0px" y="0px"
	 viewBox="0 -90 792 792" style="enable-background:new 0 -90 792 792;" xml:space="preserve">
<style type="text/css">
	.st0{fill:#F7A9A4;}
</style>
<g id="Layer_1_1_">
</g>
<g id="Capa_1">
	<path class="st0" d="M583.2,0H208.8C144,0,90,54,90,118.8v126v252C90,558,144,612,208.8,612h374.4C648,612,702,558,702,493.2v-252
		V118.8C702,54,648,0,583.2,0z M619.2,72H630v14.4v90H525.6V72H619.2z M309.6,244.8C327.6,216,360,198,396,198s68.4,18,86.4,43.2
		c14.4,18,21.6,39.6,21.6,61.2c0,61.2-46.8,108-108,108s-108-46.8-108-108C288,284.4,295.2,262.8,309.6,244.8z M644.4,493.2
		c0,32.4-25.2,57.6-57.6,57.6h-378c-32.4,0-57.6-25.2-57.6-57.6v-252h90c-7.2,21.6-10.8,43.2-10.8,64.8
		c0,93.6,75.6,169.2,169.2,169.2S568.8,399.6,568.8,306c0-21.6-3.6-43.2-10.8-61.2h90v248.4H644.4z"/>
</g>
</svg>
