<svg xmlns="http://www.w3.org/2000/svg" viewBox="0 0 450 636" enable-background="new 0 0 450 636"><style type="text/css">.st0{fill:#FFFFFF;}</style><path class="st0" d="M282.2 317.2c0-33.7-29.2-60.6-63.7-56.8-26.5 2.9-47.7 24.4-50.3 51-2.1 21.3 7.5 40.4 23 51.9 4.5 3.3 7 8.7 7 14.3l2.1 16.2h49.5l2.1-16.2c0-5.7 2.6-11 7.2-14.4 13.9-10.5 23.1-27.2 23.1-46zM200.8 397.6h48.4v4.1h-48.4zM202.7 405.3h44.7v3.8h-44.7zM235.6 418.9h-21.2l-6.2-6.2h33.6zM224.6 217.1h2.9v32.1h-2.9zM271.97 262.148l-2.051-2.051 22.698-22.698 2.051 2.051zM184.696 260.089l-2.051 2.051-22.698-22.698 2.051-2.051zM286.668 352.76l2.051-2.051 22.698 22.698-2.051 2.051zM295 303.4h32.1v2.9h-32.1zM122.9 304.9h32.1v2.9h-32.1zM142.604 379.393l-2.051-2.051 22.698-22.698 2.051 2.051z"/></svg>