<?xml version="1.0" encoding="utf-8"?>
<!-- Generator: Adobe Illustrator 18.1.1, SVG Export Plug-In . SVG Version: 6.00 Build 0)  -->
<!DOCTYPE svg PUBLIC "-//W3C//DTD SVG 1.1//EN" "http://www.w3.org/Graphics/SVG/1.1/DTD/svg11.dtd">
<svg version="1.1" id="Layer_1" xmlns="http://www.w3.org/2000/svg" xmlns:xlink="http://www.w3.org/1999/xlink" x="0px" y="0px"
	 viewBox="0 0 450 636" style="enable-background:new 0 0 450 636;" xml:space="preserve">
<style type="text/css">
	.st0{fill:#FFFFFF;}
</style>
<g>
	<g>
		<path class="st0" d="M282.2,317.2c0-33.7-29.2-60.6-63.7-56.8c-26.5,2.9-47.7,24.4-50.3,51c-2.1,21.3,7.5,40.4,23,51.9
			c4.5,3.3,7,8.7,7,14.3l2.1,16.2h49.5l2.1-16.2c0-5.7,2.6-11,7.2-14.4C273,352.7,282.2,336,282.2,317.2z"/>
		<rect x="200.8" y="397.6" class="st0" width="48.4" height="4.1"/>
		<rect x="202.7" y="405.3" class="st0" width="44.7" height="3.8"/>
		<polygon class="st0" points="235.6,418.9 214.4,418.9 208.2,412.7 241.8,412.7 		"/>
	</g>
	<rect x="224.6" y="217.1" class="st0" width="2.9" height="32.1"/>
	
		<rect x="280.9" y="233.7" transform="matrix(-0.7071 -0.7071 0.7071 -0.7071 305.3451 626.022)" class="st0" width="2.9" height="32.1"/>
	
		<rect x="170.8" y="233.7" transform="matrix(-0.7071 0.7071 -0.7071 -0.7071 470.7182 304.566)" class="st0" width="2.9" height="32.1"/>
	
		<rect x="297.6" y="347" transform="matrix(0.7071 -0.7071 0.7071 0.7071 -169.1283 317.8293)" class="st0" width="2.9" height="32.1"/>
	<rect x="295" y="303.4" class="st0" width="32.1" height="2.9"/>
	<rect x="122.9" y="304.9" class="st0" width="32.1" height="2.9"/>
	
		<rect x="151.5" y="350.9" transform="matrix(-0.7071 -0.7071 0.7071 -0.7071 1.6087 734.6402)" class="st0" width="2.9" height="32.1"/>
</g>
<g>
</g>
<g>
</g>
<g>
</g>
<g>
</g>
<g>
</g>
<g>
</g>
</svg>
