<svg xmlns="http://www.w3.org/2000/svg" viewBox="0 -90 792 792" enable-background="new 0 -90 792 792"><style type="text/css">.st0{fill:#F7A9A4;}</style><path class="st0" d="M207.7 600h-129.5v-415.8h129.5v415.8zm-66.7-466.8c-47.1 0-78.5-31.4-78.5-70.6 0-43.2 31.4-74.6 78.5-74.6s78.5 31.4 78.5 70.6c0 43.2-31.4 74.6-78.5 74.6zm588.5 466.8h-149.1v-215.8c0-54.9-23.5-94.2-74.5-94.2-39.2 0-58.8 27.5-70.6 51v259h-145.2v-415.8h145.2v66.7c7.8-27.5 54.9-70.6 129.5-70.6 94.2 0 164.8 58.8 164.8 188.3v231.4z" id="Capa_1"/></svg>