<?xml version="1.0" encoding="utf-8"?>
<!-- Generator: Adobe Illustrator 18.1.1, SVG Export Plug-In . SVG Version: 6.00 Build 0)  -->
<!DOCTYPE svg PUBLIC "-//W3C//DTD SVG 1.1//EN" "http://www.w3.org/Graphics/SVG/1.1/DTD/svg11.dtd">
<svg version="1.1" xmlns="http://www.w3.org/2000/svg" xmlns:xlink="http://www.w3.org/1999/xlink" x="0px" y="0px"
	 viewBox="0 0 210.9 71.8" style="enable-background:new 0 0 210.9 71.8;" xml:space="preserve">
<style type="text/css">
	.st0{fill:#FFFFFF;}
</style>
<g id="Layer_1">
</g>
<g id="Layer_2">
	<path class="st0" d="M83.5,33h-0.8V20.2h2.3c1,0,2,0.1,2.8,0.7c0.8,0.7,1.2,1.6,1.2,2.6c0,0.9-0.4,1.9-1.1,2.5
		c-0.8,0.7-1.9,0.8-2.9,0.8h-1.4V33z M85,26.1c0.8,0,1.6-0.1,2.2-0.7c0.6-0.5,0.8-1.2,0.8-1.9c0-0.8-0.3-1.6-1-2.1
		c-0.6-0.5-1.5-0.5-2.2-0.5h-1.3v5.2H85z"/>
	<path class="st0" d="M112.6,33h-0.8V20.2h0.8V33z"/>
	<path class="st0" d="M127.1,22.3c-0.6-0.9-1.4-1.5-2.6-1.5c-1.4,0-2.4,1.1-2.4,2.4s1.3,1.9,2.3,2.4l2.4,1.3c1,0.6,1.5,1.4,1.5,2.5
		c0,2.1-1.9,3.7-4,3.7c-1.8,0-3.2-1.1-3.8-2.8l0.7-0.3c0.5,1.4,1.5,2.3,3.1,2.3c1.7,0,3.2-1.3,3.2-3c0-1.4-1.5-2.1-2.6-2.6l-2.3-1.2
		c-0.9-0.5-1.3-1.3-1.3-2.3c0-1.9,1.4-3.2,3.3-3.2c1.3,0,2.5,0.7,3.1,1.8L127.1,22.3z"/>
	<path class="st0" d="M137,32.2h3.3V33h-4.1V20.2h0.8V32.2z"/>
	<path class="st0" d="M148.3,20.9v4.7h5.2v0.8h-5.2v5.9h5.3V33h-6.1V20.2h6.1v0.8H148.3z"/>
	<path class="st0" d="M160.6,20.2h0.9l3.8,6.5l3.8-6.5h0.9l-4.3,7.3V33h-0.8v-5.5L160.6,20.2z"/>
	<path class="st0" d="M83.5,52.6h3.3v0.8h-4.1V40.6h0.8V52.6z"/>
	<path class="st0" d="M117.8,40.6h0.8v8c0,1.3,0,2.4-0.9,3.5c-0.9,1-2.2,1.5-3.5,1.5s-2.6-0.5-3.5-1.5c-0.9-1.1-0.9-2.2-0.9-3.5v-8
		h0.8v7.8c0,1.2,0,2.4,0.7,3.2c0.6,0.8,1.9,1.2,2.9,1.2s2.2-0.4,2.9-1.2c0.7-0.8,0.7-2.1,0.7-3.2V40.6z"/>
	<path class="st0" d="M133,53.4h-0.9l-4.2-6.1h-0.4v6.1h-0.8V40.6h1.6c1,0,2.1,0,2.9,0.6c0.9,0.6,1.3,1.7,1.3,2.8
		c0,2.2-1.5,3.4-3.7,3.3L133,53.4z M128.5,46.6c0.8,0,1.6,0,2.2-0.6c0.6-0.5,0.9-1.3,0.9-2c0-1-0.4-1.9-1.4-2.3
		c-0.7-0.3-1.5-0.3-2.3-0.3h-0.5v5.2H128.5z"/>
	<path class="st0" d="M141.2,41.3V46h5.2v0.8h-5.2v5.9h5.3v0.8h-6.1V40.6h6.1v0.8H141.2z"/>
	<path class="st0" d="M166,53.8l-10.8-11.4v11h-0.8v-13l10.8,11.4V40.6h0.8V53.8z"/>
	<path class="st0" d="M182.1,52.6v0.8h-9l7.8-12.1h-7.1v-0.8h8.5l-7.8,12.1H182.1z"/>
	<path class="st0" d="M190.1,53.4h-0.8V40.6h0.8V53.4z"/>
	<path class="st0" d="M210.9,47c0,3.6-3,6.6-6.6,6.6s-6.6-3-6.6-6.6c0-3.6,3-6.6,6.6-6.6C207.8,40.4,210.9,43.4,210.9,47z M198.4,47
		c0,3.2,2.6,5.8,5.8,5.8c3.2,0,5.8-2.7,5.8-5.8c0-3.2-2.7-5.8-5.8-5.8C201,41.2,198.4,43.8,198.4,47z"/>
	<polygon class="st0" points="99.2,19.8 93.8,33 94.7,33 99.2,21.8 103.7,33 104.6,33 	"/>
	<polygon class="st0" points="97.7,40.2 92.4,53.4 93.2,53.4 97.7,42.2 102.3,53.4 103.1,53.4 	"/>
	<g>
		<g>
			<g>
				<polygon class="st0" points="39.7,68.9 36.9,71.8 0,34.9 29.1,5.7 50.5,27.1 27.1,50.5 24.3,47.6 44.8,27.1 29.1,11.4 5.7,34.9 
									"/>
			</g>
		</g>
		<g>
			<g>
				<polygon class="st0" points="71.7,36.8 42.6,66 39.7,63.2 66.1,36.8 32,2.8 34.9,0 				"/>
			</g>
		</g>
	</g>
</g>
</svg>
