<svg xmlns="http://www.w3.org/2000/svg" viewBox="0 0 210.9 71.8" enable-background="new 0 0 210.9 71.8"><style type="text/css">.st0{fill:#FFFFFF;}</style><g id="Layer_2"><path class="st0" d="M83.5 33h-.8v-12.8h2.3c1 0 2 .1 2.8.7.8.7 1.2 1.6 1.2 2.6 0 .9-.4 1.9-1.1 2.5-.8.7-1.9.8-2.9.8h-1.4v6.2zm1.5-6.9c.8 0 1.6-.1 2.2-.7.6-.5.8-1.2.8-1.9 0-.8-.3-1.6-1-2.1-.6-.5-1.5-.5-2.2-.5h-1.3v5.2h1.5zM112.6 33h-.8v-12.8h.8v12.8zM127.1 22.3c-.6-.9-1.4-1.5-2.6-1.5-1.4 0-2.4 1.1-2.4 2.4s1.3 1.9 2.3 2.4l2.4 1.3c1 .6 1.5 1.4 1.5 2.5 0 2.1-1.9 3.7-4 3.7-1.8 0-3.2-1.1-3.8-2.8l.7-.3c.5 1.4 1.5 2.3 3.1 2.3 1.7 0 3.2-1.3 3.2-3 0-1.4-1.5-2.1-2.6-2.6l-2.3-1.2c-.9-.5-1.3-1.3-1.3-2.3 0-1.9 1.4-3.2 3.3-3.2 1.3 0 2.5.7 3.1 1.8l-.6.5zM137 32.2h3.3v.8h-4.1v-12.8h.8v12zM148.3 20.9v4.7h5.2v.8h-5.2v5.9h5.3v.7h-6.1v-12.8h6.1v.8h-5.3zM160.6 20.2h.9l3.8 6.5 3.8-6.5h.9l-4.3 7.3v5.5h-.8v-5.5l-4.3-7.3zM83.5 52.6h3.3v.8h-4.1v-12.8h.8v12zM117.8 40.6h.8v8c0 1.3 0 2.4-.9 3.5-.9 1-2.2 1.5-3.5 1.5s-2.6-.5-3.5-1.5c-.9-1.1-.9-2.2-.9-3.5v-8h.8v7.8c0 1.2 0 2.4.7 3.2.6.8 1.9 1.2 2.9 1.2s2.2-.4 2.9-1.2c.7-.8.7-2.1.7-3.2v-7.8zM133 53.4h-.9l-4.2-6.1h-.4v6.1h-.8v-12.8h1.6c1 0 2.1 0 2.9.6.9.6 1.3 1.7 1.3 2.8 0 2.2-1.5 3.4-3.7 3.3l4.2 6.1zm-4.5-6.8c.8 0 1.6 0 2.2-.6.6-.5.9-1.3.9-2 0-1-.4-1.9-1.4-2.3-.7-.3-1.5-.3-2.3-.3h-.5v5.2h1.1zM141.2 41.3v4.7h5.2v.8h-5.2v5.9h5.3v.8h-6.1v-12.9h6.1v.8h-5.3zM166 53.8l-10.8-11.4v11h-.8v-13l10.8 11.4v-11.2h.8v13.2zM182.1 52.6v.8h-9l7.8-12.1h-7.1v-.8h8.5l-7.8 12.1h7.6zM190.1 53.4h-.8v-12.8h.8v12.8zM210.9 47c0 3.6-3 6.6-6.6 6.6s-6.6-3-6.6-6.6c0-3.6 3-6.6 6.6-6.6 3.5 0 6.6 3 6.6 6.6zm-12.5 0c0 3.2 2.6 5.8 5.8 5.8 3.2 0 5.8-2.7 5.8-5.8 0-3.2-2.7-5.8-5.8-5.8-3.2 0-5.8 2.6-5.8 5.8zM99.2 19.8l-5.4 13.2h.9l4.5-11.2 4.5 11.2h.9zM97.7 40.2l-5.3 13.2h.8l4.5-11.2 4.6 11.2h.8zM39.7 68.9l-2.8 2.9-36.9-36.9 29.1-29.2 21.4 21.4-23.4 23.4-2.8-2.9 20.5-20.5-15.7-15.7-23.4 23.5zM71.7 36.8l-29.1 29.2-2.9-2.8 26.4-26.4-34.1-34 2.9-2.8z"/></g></svg>