<svg xmlns="http://www.w3.org/2000/svg" viewBox="0 0 72 72" enable-background="new 0 0 72 72"><style type="text/css">.st0{fill:#68C6B5;} .st1{fill:#FFFFFF;}</style><path class="st0" d="M3.7 9.1h28.7v3.6h-28.7zM3.7 16.3h28.7v3.6h-28.7zM3.7 23.5h28.7v3.6h-28.7z"/><path class="st1" d="M39 9.1h28.7v3.6h-28.7zM39 16.3h28.7v3.6h-28.7zM39 23.5h28.7v3.6h-28.7z"/><path class="st0" d="M27.4 47.4l-2.9-2.9-6.4 6.4-6.5-6.4-2.9 2.9 6.4 6.4-6.4 6.5 2.9 2.9 6.5-6.4 6.4 6.4 2.9-2.9-6.4-6.5z"/><path class="st1" d="M62.7 47.4l-3-2.9-6.4 6.4-6.4-6.4-2.9 2.9 6.4 6.4-6.4 6.5 2.9 2.9 6.4-6.4 6.4 6.4 3-2.9-6.4-6.5z"/></svg>