<?xml version="1.0" encoding="utf-8"?>
<!-- Generator: Adobe Illustrator 18.1.1, SVG Export Plug-In . SVG Version: 6.00 Build 0)  -->
<!DOCTYPE svg PUBLIC "-//W3C//DTD SVG 1.1//EN" "http://www.w3.org/Graphics/SVG/1.1/DTD/svg11.dtd">
<svg version="1.1" id="Layer_1" xmlns="http://www.w3.org/2000/svg" xmlns:xlink="http://www.w3.org/1999/xlink" x="0px" y="0px"
	 viewBox="0 0 72 72" style="enable-background:new 0 0 72 72;" xml:space="preserve">
<style type="text/css">
	.st0{fill:#68C6B5;}
	.st1{fill:#FFFFFF;}
</style>
<rect x="3.7" y="9.1" class="st0" width="28.7" height="3.6"/>
<rect x="3.7" y="16.3" class="st0" width="28.7" height="3.6"/>
<rect x="3.7" y="23.5" class="st0" width="28.7" height="3.6"/>
<rect x="39" y="9.1" class="st1" width="28.7" height="3.6"/>
<rect x="39" y="16.3" class="st1" width="28.7" height="3.6"/>
<rect x="39" y="23.5" class="st1" width="28.7" height="3.6"/>
<polygon class="st0" points="27.4,47.4 24.5,44.5 18.1,50.9 11.6,44.5 8.7,47.4 15.1,53.8 8.7,60.3 11.6,63.2 18.1,56.8 24.5,63.2 
	27.4,60.3 21,53.8 "/>
<polygon class="st1" points="62.7,47.4 59.7,44.5 53.3,50.9 46.9,44.5 44,47.4 50.4,53.8 44,60.3 46.9,63.2 53.3,56.8 59.7,63.2 
	62.7,60.3 56.3,53.8 "/>
<g>
</g>
<g>
</g>
<g>
</g>
<g>
</g>
<g>
</g>
<g>
</g>
</svg>
