<?xml version="1.0" encoding="utf-8"?>
<!-- Generator: Adobe Illustrator 18.1.1, SVG Export Plug-In . SVG Version: 6.00 Build 0)  -->
<!DOCTYPE svg PUBLIC "-//W3C//DTD SVG 1.1//EN" "http://www.w3.org/Graphics/SVG/1.1/DTD/svg11.dtd">
<svg version="1.1" id="Layer_1" xmlns="http://www.w3.org/2000/svg" xmlns:xlink="http://www.w3.org/1999/xlink" x="0px" y="0px"
	 viewBox="0 0 900 636" style="enable-background:new 0 0 900 636;" xml:space="preserve">
<style type="text/css">
	.st0{fill:#FFFFFF;}
	.st1{fill:#26A5AA;}
</style>
<polygon class="st0" points="450,198.2 394.2,320.6 395.9,433.2 504.1,433.2 505.8,320.6 "/>
<g>
	<polygon class="st1" points="472.4,247.4 450,198.2 427.6,247.4 	"/>
	<path class="st1" d="M450,437.8L450,437.8c3.7,0,6.7-3,6.7-6.7v-106c0-3.7-3-6.7-6.7-6.7l0,0c-3.7,0-6.7,3-6.7,6.7v106
		C443.3,434.8,446.3,437.8,450,437.8z"/>
	<path class="st1" d="M398.1,437.8L398.1,437.8c3.7,0,6.7-3,6.7-6.7v-106c0-3.7-3-6.7-6.7-6.7l0,0c-3.7,0-6.7,3-6.7,6.7v106
		C391.4,434.8,394.4,437.8,398.1,437.8z"/>
	<path class="st1" d="M501.9,437.8L501.9,437.8c3.7,0,6.7-3,6.7-6.7v-106c0-3.7-3-6.7-6.7-6.7l0,0c-3.7,0-6.7,3-6.7,6.7v106
		C495.3,434.8,498.3,437.8,501.9,437.8z"/>
</g>
<g>
</g>
<g>
</g>
<g>
</g>
<g>
</g>
<g>
</g>
<g>
</g>
</svg>
