<svg xmlns="http://www.w3.org/2000/svg" viewBox="0 0 900 636" enable-background="new 0 0 900 636"><style type="text/css">.st0{fill:#FFFFFF;} .st1{fill:#26A5AA;}</style><path class="st0" d="M450 198.2l-55.8 122.4 1.7 112.6h108.2l1.7-112.6z"/><path class="st1" d="M472.4 247.4l-22.4-49.2-22.4 49.2zM450 437.8c3.7 0 6.7-3 6.7-6.7v-106c0-3.7-3-6.7-6.7-6.7s-6.7 3-6.7 6.7v106c0 3.7 3 6.7 6.7 6.7zM398.1 437.8c3.7 0 6.7-3 6.7-6.7v-106c0-3.7-3-6.7-6.7-6.7s-6.7 3-6.7 6.7v106c0 3.7 3 6.7 6.7 6.7zM501.9 437.8c3.7 0 6.7-3 6.7-6.7v-106c0-3.7-3-6.7-6.7-6.7s-6.7 3-6.7 6.7v106c.1 3.7 3.1 6.7 6.7 6.7z"/></svg>