<?xml version="1.0" encoding="utf-8"?>
<!-- Generator: Adobe Illustrator 18.1.1, SVG Export Plug-In . SVG Version: 6.00 Build 0)  -->
<!DOCTYPE svg PUBLIC "-//W3C//DTD SVG 1.1//EN" "http://www.w3.org/Graphics/SVG/1.1/DTD/svg11.dtd">
<svg version="1.1" id="Layer_1" xmlns="http://www.w3.org/2000/svg" xmlns:xlink="http://www.w3.org/1999/xlink" x="0px" y="0px"
	 viewBox="0 0 1023 1023" style="enable-background:new 0 0 1023 1023;" xml:space="preserve">
<style type="text/css">
	.st0{fill:#68C6B5;}
	.st1{fill:#FFFFFF;}
	.st2{fill:#A4DDD3;}
	.st3{fill:#26A5AA;}
	.st4{fill:#86D1C4;}
</style>
<circle class="st0" cx="511.5" cy="511.5" r="407.6"/>
<path class="st1" d="M276.4,440.2h28.2c37.9,0,55.5,23.8,55.5,60.7s-17.6,61.6-55.5,61.6h-28.2V440.2L276.4,440.2z M303.7,554.6
	c33.5,0,47.5-22,47.5-54.6c0-31.7-14.1-52.8-47.5-52.8h-18.5v107.4H303.7z M418.2,471c21.1,0,34.3,15,34.3,41.4v7h-65.1
	c0,22,13.2,38.7,33.5,38.7c9.7,0,17.6-3.5,23.8-7.9l3.5,6.2c-7,4.4-15,8.8-28.2,8.8c-22.9,0-41.4-17.6-41.4-46.7
	C379.4,488.6,397.9,471,418.2,471L418.2,471z M443.7,512.4c0-22.9-10.6-34.3-26.4-34.3c-15,0-29.1,13.2-30.8,34.3H443.7z
	 M469.2,545.8c7.9,6.2,15.8,11.4,28.2,11.4c14.1,0,21.1-7.9,21.1-17.6c0-11.4-11.4-15.8-22-19.4c-13.2-4.4-28.2-10.6-28.2-25.5
	c0-13.2,10.6-23.8,29.1-23.8c9.7,0,18.5,3.5,25.5,8.8l-4.4,6.2c-6.2-4.4-12.3-7.9-21.1-7.9c-14.1,0-20.2,7.9-20.2,15.8
	c0,9.7,10.6,14.1,21.1,17.6c14.1,5.3,29.1,9.7,29.1,27.3c0,13.2-10.6,24.7-29.9,24.7c-13.2,0-24.7-5.3-32.6-12.3L469.2,545.8
	L469.2,545.8z M547.6,444.6c0-4.4,3.5-7,7-7s7,2.6,7,7s-3.5,7-7,7S547.6,449,547.6,444.6z M551.1,472.8h7.9v88.9h-7.9V472.8
	L551.1,472.8z M598.7,558.2c-4.4-3.5-7.9-7.9-7.9-15c0-7.9,6.2-13.2,9.7-15.8v-0.9c-5.3-4.4-10.6-13.2-10.6-24.7
	c0-18.5,14.1-30.8,30.8-30.8c4.4,0,8.8,0.9,11.4,2.6H662v7h-21.1c6.2,5.3,9.7,13.2,9.7,22c0,18.5-13.2,30.8-30.8,30.8
	c-5.3,0-10.6-0.9-15-3.5c-2.6,2.6-6.2,7-6.2,12.3c0,6.2,3.5,11.4,16.7,11.4h19.4c20.2,0,29.1,6.2,29.1,20.2
	c0,15-16.7,29.9-42.3,29.9c-22,0-36.1-9.7-36.1-24.7C585.5,572.2,590.7,564.3,598.7,558.2L598.7,558.2z M623.3,597.8
	c20.2,0,32.6-11.4,32.6-22c0-9.7-7-13.2-20.2-13.2h-19.4c-1.8,0-6.2,0-11.4-1.8c-7.9,5.3-11.4,12.3-11.4,18.5
	C593.4,590.7,603.9,597.8,623.3,597.8L623.3,597.8z M643.6,501.8c0-15-10.6-24.7-22.9-24.7s-22.9,9.7-22.9,24.7
	c0,15,10.6,24.7,22.9,24.7C633,527.3,643.6,516.8,643.6,501.8z M683.2,472.8h7l0.9,14.1h0.9c8.8-8.8,18.5-15.8,30.8-15.8
	c18.5,0,26.4,11.4,26.4,34.3v57.2h-7.9v-55.5c0-18.5-6.2-27.3-20.2-27.3c-10.6,0-18.5,5.3-29.1,16.7v66.9h-7.9v-90.7L683.2,472.8z"
	/>
<circle class="st2" cx="511.5" cy="511.5" r="407.6"/>
<path class="st0" d="M506.2,262.4l-118,251.8l3.5,237.7h228l3.5-237.7L506.2,262.4z"/>
<path class="st3" d="M554.6,360.1l-48.4-103.9l-49.3,103.9H554.6z M506.2,761.5c7.9,0,14.1-6.2,14.1-14.1V523.8
	c0-7.9-6.2-14.1-14.1-14.1c-7.9,0-14.1,6.2-14.1,14.1v223.6C491.3,755.4,498.3,761.5,506.2,761.5z M396.2,761.5
	c7.9,0,14.1-6.2,14.1-14.1V523.8c0-7.9-6.2-14.1-14.1-14.1c-7.9,0-14.1,6.2-14.1,14.1v223.6C382.1,755.4,388.2,761.5,396.2,761.5z
	 M615.4,761.5c7.9,0,14.1-6.2,14.1-14.1V523.8c0-7.9-6.2-14.1-14.1-14.1s-14.1,6.2-14.1,14.1v223.6
	C601.3,755.4,607.5,761.5,615.4,761.5z"/>
<path class="st4" d="M560.8,543.2c-17.6,0-32.6-7.9-37.9-19.4h-2.6v228h81v-228h-2.6C592.5,535.3,578.4,543.2,560.8,543.2z"/>
</svg>
