<svg xmlns="http://www.w3.org/2000/svg" viewBox="0 0 116.2 116.2" enable-background="new 0 0 116.2 116.2"><style type="text/css">.st0{fill:#68C6B5;} .st1{fill:#FFFFFF;} .st2{fill:#F37779;} .st3{fill:#26A5AA;} .st4{fill:#72A79E;}</style><circle class="st0" cx="58.1" cy="58.1" r="46.3"/><path class="st1" d="M31.4 50h3.2c4.3 0 6.3 2.7 6.3 6.9s-2 7-6.3 7h-3.2v-13.9zm3.1 13c3.8 0 5.4-2.5 5.4-6.2 0-3.6-1.6-6-5.4-6h-2.1v12.2h2.1zm13-9.5c2.4 0 3.9 1.7 3.9 4.7v.8h-7.4c0 2.5 1.5 4.4 3.8 4.4 1.1 0 2-.4 2.7-.9l.4.7c-.8.5-1.7 1-3.2 1-2.6 0-4.7-2-4.7-5.3.1-3.4 2.2-5.4 4.5-5.4zm2.9 4.7c0-2.6-1.2-3.9-3-3.9-1.7 0-3.3 1.5-3.5 3.9h6.5zm2.9 3.8c.9.7 1.8 1.3 3.2 1.3 1.6 0 2.4-.9 2.4-2 0-1.3-1.3-1.8-2.5-2.2-1.5-.5-3.2-1.2-3.2-2.9 0-1.5 1.2-2.7 3.3-2.7 1.1 0 2.1.4 2.9 1l-.5.7c-.7-.5-1.4-.9-2.4-.9-1.6 0-2.3.9-2.3 1.8 0 1.1 1.2 1.6 2.4 2 1.6.6 3.3 1.1 3.3 3.1 0 1.5-1.2 2.8-3.4 2.8-1.5 0-2.8-.6-3.7-1.4l.5-.6zm8.9-11.5c0-.5.4-.8.8-.8s.8.3.8.8-.4.8-.8.8-.8-.3-.8-.8zm.4 3.2h.9v10.1h-.9v-10.1zm5.4 9.7c-.5-.4-.9-.9-.9-1.7 0-.9.7-1.5 1.1-1.8v-.1c-.6-.5-1.2-1.5-1.2-2.8 0-2.1 1.6-3.5 3.5-3.5.5 0 1 .1 1.3.3h3.4v.8h-2.4c.7.6 1.1 1.5 1.1 2.5 0 2.1-1.5 3.5-3.5 3.5-.6 0-1.2-.1-1.7-.4-.3.3-.7.8-.7 1.4 0 .7.4 1.3 1.9 1.3h2.2c2.3 0 3.3.7 3.3 2.3 0 1.7-1.9 3.4-4.8 3.4-2.5 0-4.1-1.1-4.1-2.8 0-.8.6-1.7 1.5-2.4zm2.8 4.5c2.3 0 3.7-1.3 3.7-2.5 0-1.1-.8-1.5-2.3-1.5h-2.2c-.2 0-.7 0-1.3-.2-.9.6-1.3 1.4-1.3 2.1 0 1.3 1.2 2.1 3.4 2.1zm2.3-10.9c0-1.7-1.2-2.8-2.6-2.8s-2.6 1.1-2.6 2.8c0 1.7 1.2 2.8 2.6 2.8 1.4.1 2.6-1.1 2.6-2.8zm4.5-3.3h.8l.1 1.6h.1c1-1 2.1-1.8 3.5-1.8 2.1 0 3 1.3 3 3.9v6.5h-.9v-6.3c0-2.1-.7-3.1-2.3-3.1-1.2 0-2.1.6-3.3 1.9v7.6h-.9v-10.3z"/><circle class="st2" cx="58.1" cy="58.1" r="46.3"/><path class="st0" d="M57.5 29.8l-13.4 28.6.4 27h25.9l.4-27z"/><path class="st3" d="M63 40.9l-5.5-11.8-5.6 11.8zm-5.5 45.6c.9 0 1.6-.7 1.6-1.6v-25.4c0-.9-.7-1.6-1.6-1.6-.9 0-1.6.7-1.6 1.6v25.4c-.1.9.7 1.6 1.6 1.6zm-12.5 0c.9 0 1.6-.7 1.6-1.6v-25.4c0-.9-.7-1.6-1.6-1.6-.9 0-1.6.7-1.6 1.6v25.4c0 .9.7 1.6 1.6 1.6zm24.9 0c.9 0 1.6-.7 1.6-1.6v-25.4c0-.9-.7-1.6-1.6-1.6-.9 0-1.6.7-1.6 1.6v25.4c0 .9.7 1.6 1.6 1.6z"/><path class="st4" d="M63.7 61.7c-2 0-3.7-.9-4.3-2.2h-.3v25.9h9.2v-25.9h-.3c-.7 1.3-2.3 2.2-4.3 2.2z"/></svg>