<?xml version="1.0" encoding="utf-8"?>
<!-- Generator: Adobe Illustrator 18.1.1, SVG Export Plug-In . SVG Version: 6.00 Build 0)  -->
<!DOCTYPE svg PUBLIC "-//W3C//DTD SVG 1.1//EN" "http://www.w3.org/Graphics/SVG/1.1/DTD/svg11.dtd">
<svg version="1.1" id="Layer_1" xmlns="http://www.w3.org/2000/svg" xmlns:xlink="http://www.w3.org/1999/xlink" x="0px" y="0px"
	 viewBox="0 -90 792 792" style="enable-background:new 0 -90 792 792;" xml:space="preserve">
<style type="text/css">
	.st0{fill:#F7A9A4;}
</style>
<g id="Layer_1_1_">
</g>
<g id="Capa_1">
	<path class="st0" d="M773,71c-26.6,13.3-57.7,22.2-88.7,26.6c31-17.7,57.7-48.8,66.5-84.3c-31,17.7-62.1,31-97.6,35.5
		C626.6,17.7,586.7,0,542.3,0c-84.3,0-155.2,71-155.2,155.2c0,13.3,0,22.2,4.4,35.5C263,181.8,147.7,124.2,72.3,26.6
		C59,53.2,50.1,79.8,50.1,106.4c0,53.2,26.6,102,71,128.6c-26.6,0-48.8-8.9-71-17.7l0,0c0,75.4,53.2,137.5,124.2,150.8
		c-13.3,4.4-26.6,8.9-39.9,8.9c-8.9,0-17.7,0-31-4.4C121,434.6,178.7,479,249.7,479c-53.2,39.9-119.7,66.5-190.7,66.5
		c-13.3,0-26.6,0-35.5,0c66.5,44.3,150.8,71,239.5,71c283.8,0,439-235,439-439c0-8.9,0-13.3,0-22.2C728.6,133,755.2,102,773,71"/>
</g>
</svg>
