<svg xmlns="http://www.w3.org/2000/svg" viewBox="0 -90 792 792" enable-background="new 0 -90 792 792"><style type="text/css">.st0{fill:#F7A9A4;}</style><path class="st0" d="M773 71c-26.6 13.3-57.7 22.2-88.7 26.6 31-17.7 57.7-48.8 66.5-84.3-31 17.7-62.1 31-97.6 35.5-26.6-31.1-66.5-48.8-110.9-48.8-84.3 0-155.2 71-155.2 155.2 0 13.3 0 22.2 4.4 35.5-128.5-8.9-243.8-66.5-319.2-164.1-13.3 26.6-22.2 53.2-22.2 79.8 0 53.2 26.6 102 71 128.6-26.6 0-48.8-8.9-71-17.7 0 75.4 53.2 137.5 124.2 150.8-13.3 4.4-26.6 8.9-39.9 8.9-8.9 0-17.7 0-31-4.4 17.6 62 75.3 106.4 146.3 106.4-53.2 39.9-119.7 66.5-190.7 66.5h-35.5c66.5 44.3 150.8 71 239.5 71 283.8 0 439-235 439-439v-22.2c26.6-22.3 53.2-53.3 71-84.3" id="Capa_1"/></svg>