<svg xmlns="http://www.w3.org/2000/svg" viewBox="0 0 116.2 116.2" enable-background="new 0 0 116.2 116.2"><style type="text/css">.st0{fill:#F37779;} .st1{fill:#F7B461;} .st2{fill:#F7B461;stroke:#F7B461;stroke-width:2.0109;stroke-miterlimit:10;}</style><circle class="st0" cx="58.2" cy="58.4" r="46.3"/><path class="st1" d="M76.8 57.3c0-11-9.5-19.7-20.7-18.5-8.6 1-15.5 8-16.4 16.6-.7 6.9 2.4 13.1 7.5 16.9 1.5 1.1 2.3 2.8 2.3 4.6l.7 5.3h16.1l.7-5.3c0-1.8.9-3.6 2.3-4.7 4.5-3.3 7.5-8.8 7.5-14.9zm-26.5 26.1h15.8v1.3h-15.8zm.6 2.6h14.5v1.2h-14.5zm10.8 4.4h-7l-2-2h11z"/><path class="st2" d="M58.1 24.7h.9v10.5h-.9zm15.336 14.69l-.636-.636 7.425-7.425.636.636zm-28.365-.624l-.636.636-7.425-7.425.636-.636zm33.183 30.113l.636-.636 7.425 7.425-.636.636zm2.746-16.079h10.5v.9h-10.5zm-56 .5h10.5v.9h-10.5zm6.4 24.185l-.636-.636 7.425-7.425.636.636z"/></svg>