<?xml version="1.0" encoding="utf-8"?>
<!-- Generator: Adobe Illustrator 18.1.1, SVG Export Plug-In . SVG Version: 6.00 Build 0)  -->
<!DOCTYPE svg PUBLIC "-//W3C//DTD SVG 1.1//EN" "http://www.w3.org/Graphics/SVG/1.1/DTD/svg11.dtd">
<svg version="1.1" id="Layer_1" xmlns="http://www.w3.org/2000/svg" xmlns:xlink="http://www.w3.org/1999/xlink" x="0px" y="0px"
	 viewBox="0 0 1023 1023" style="enable-background:new 0 0 1023 1023;" xml:space="preserve">
<style type="text/css">
	.st0{fill:#FCE1C0;}
	.st1{fill:#F7B461;}
	.st2{fill:#F7B461;stroke:#F7B461;stroke-width:2.0109;stroke-miterlimit:10;}
</style>
<circle class="st0" cx="512.4" cy="514.1" r="407.6"/>
<path class="st1" d="M676.1,504.5c0-96.8-83.6-173.4-182.2-162.9c-75.7,8.8-136.5,70.4-144.4,146.1c-6.2,60.7,21.1,115.3,66,148.8
	c13.2,9.7,20.2,24.7,20.2,40.5l6.2,46.7h141.7l6.2-46.7c0-15.8,7.9-31.7,20.2-41.4C649.7,606.6,676.1,558.2,676.1,504.5L676.1,504.5
	z M442.8,734.2h139.1v11.4H442.8L442.8,734.2z M448.1,757.1h127.7v10.6H448.1V757.1z M543.2,795.9h-61.6L464,778.3h96.8L543.2,795.9
	z"/>
<path class="st2" d="M511.5,217.5h7.9v92.4h-7.9V217.5z M646.5,346.8l-5.6-5.6l65.4-65.4l5.6,5.6L646.5,346.8z M396.8,341.3
	l-5.6,5.6l-65.4-65.4l5.6-5.6L396.8,341.3z M688.9,606.4l5.6-5.6l65.4,65.4l-5.6,5.6L688.9,606.4z M713.1,464.8h92.4v7.9h-92.4
	V464.8z M220.1,469.2h92.4v7.9h-92.4V469.2z M276.4,682.2l-5.6-5.6l65.4-65.4l5.6,5.6L276.4,682.2z"/>
</svg>
